<?xml version="1.0" encoding="utf-8"?>
<!-- Generator: Adobe Illustrator 28.2.0, SVG Export Plug-In . SVG Version: 6.00 Build 0)  -->
<svg version="1.1" id="Layer_1" xmlns="http://www.w3.org/2000/svg" xmlns:xlink="http://www.w3.org/1999/xlink" x="0px" y="0px"
	 viewBox="0 0 717.2 717.2" style="enable-background:new 0 0 717.2 717.2;" xml:space="preserve">
<style type="text/css">
	.st0{fill:#53B400;fill-opacity:0.5;stroke:#000000;stroke-width:0.5;stroke-miterlimit:10;stroke-opacity:5.000000e-02;}
	.st1{fill:#F8766D;fill-opacity:0.5;stroke:#000000;stroke-width:0.5;stroke-miterlimit:10;stroke-opacity:5.000000e-02;}
	.st2{fill:#C49A00;fill-opacity:0.5;stroke:#000000;stroke-width:0.5;stroke-miterlimit:10;stroke-opacity:5.000000e-02;}
	.st3{fill:#00C094;fill-opacity:0.5;stroke:#000000;stroke-width:0.5;stroke-miterlimit:10;stroke-opacity:5.000000e-02;}
	.st4{fill:#00B6EB;fill-opacity:0.5;}
	.st5{fill:#A58AFF;fill-opacity:0.5;}
	.st6{fill:#FB61D7;fill-opacity:0.5;}
	.st7{fill:#7F7F7F;stroke:#000000;stroke-width:1.07;stroke-linejoin:round;stroke-miterlimit:10;}
	.st8{fill:#FB61D7;stroke:#000000;stroke-width:1.07;stroke-linejoin:round;stroke-miterlimit:10;}
	.st9{fill:#A58AFF;stroke:#000000;stroke-width:1.07;stroke-linejoin:round;stroke-miterlimit:10;}
	.st10{fill:#00B6EB;stroke:#000000;stroke-width:1.07;stroke-linejoin:round;stroke-miterlimit:10;}
	.st11{fill:#00C094;stroke:#000000;stroke-width:1.07;stroke-linejoin:round;stroke-miterlimit:10;}
	.st12{fill:#53B400;stroke:#000000;stroke-width:1.07;stroke-linejoin:round;stroke-miterlimit:10;}
	.st13{fill:#C49A00;stroke:#000000;stroke-width:1.07;stroke-linejoin:round;stroke-miterlimit:10;}
	.st14{fill:#F8766D;stroke:#000000;stroke-width:1.07;stroke-linejoin:round;stroke-miterlimit:10;}
	.st15{font-family:'ArialMT';}
	.st16{font-size:11.04px;}
	.st17{enable-background:new    ;}
</style>
<g>
	<rect x="97.1" y="273.1" class="st0" width="522.9" height="143.6"/>
	<rect x="97.1" y="416.7" class="st0" width="522.9" height="48.2"/>
	<rect x="97.1" y="464.9" class="st0" width="522.9" height="51.2"/>
	<rect x="97.1" y="516.1" class="st0" width="522.9" height="93.7"/>
	<polygon class="st1" points="97.1,61.3 171.8,61.3 171.9,61.3 172.7,61.3 174.6,61.3 177.5,61.3 181.4,61.3 185.8,61.3 190.4,61.3 
		194.7,61.3 198.8,61.3 202.7,61.3 206.3,61.3 209.9,61.3 213.6,61.3 215.4,61.3 218.7,61.3 222.1,61.3 225.7,61.3 229.5,61.3 
		233.5,61.3 237.7,61.3 242,61.3 246.3,61.3 250.6,61.3 254.9,61.3 259.1,61.3 263.1,61.3 267,61.3 270.6,61.3 274,61.3 277.3,61.3 
		277.6,61.3 281.4,61.3 285,61.3 288.6,61.3 292.4,61.3 296.3,61.3 300.6,61.3 305.1,61.3 309.6,61.3 313.8,61.3 317.2,61.3 
		319.6,61.3 320.9,61.3 321.2,61.3 321.2,61.3 395.9,61.3 396.1,61.3 396.8,61.3 398.7,61.3 401.6,61.3 405.5,61.3 409.9,61.3 
		414.5,61.3 418.8,61.3 423,61.3 426.8,61.3 430.5,61.3 434.1,61.3 437.7,61.3 439.5,61.3 442.8,61.3 446.2,61.3 449.8,61.3 
		453.6,61.3 457.6,61.3 461.8,61.3 466.1,61.3 470.4,61.3 474.8,61.3 479,61.3 483.2,61.3 487.2,61.3 491.1,61.3 494.7,61.3 
		498.1,61.3 501.4,61.3 501.8,61.3 505.5,61.3 509.1,61.3 512.7,61.3 516.5,61.3 520.5,61.3 524.7,61.3 529.2,61.3 533.7,61.3 
		537.9,61.3 541.3,61.3 543.7,61.3 545,61.3 545.3,61.3 545.3,61.3 620,61.3 620,26 545.3,26 545.2,26 544.5,26 542.6,26 539.6,26 
		535.7,26 531.3,26 526.8,26 522.4,26 518.3,26 514.5,26 510.8,26 507.2,26 503.6,26 501.8,26 498.5,26 495.1,26 491.5,26 487.6,26 
		483.6,26 479.5,26 475.2,26 470.9,26 466.5,26 462.2,26 458.1,26 454,26 450.2,26 446.6,26 443.1,26 439.9,26 439.5,26 435.8,26 
		432.2,26 428.5,26 424.8,26 420.8,26 416.6,26 412.1,26 407.6,26 403.4,26 400,26 397.6,26 396.3,26 396,26 395.9,26 321.2,26 
		321.1,26 320.3,26 318.5,26 315.5,26 311.6,26 307.2,26 302.7,26 298.3,26 294.2,26 290.4,26 286.7,26 283.1,26 279.4,26 277.6,26 
		274.4,26 271,26 267.3,26 263.5,26 259.5,26 255.4,26 251.1,26 246.8,26 242.4,26 238.1,26 234,26 229.9,26 226.1,26 222.5,26 
		219,26 215.7,26 215.4,26 211.7,26 208.1,26 204.4,26 200.7,26 196.7,26 192.5,26 188,26 183.5,26 179.3,26 175.8,26 173.4,26 
		172.2,26 171.8,26 171.8,26 97.1,26 	"/>
	<polygon class="st1" points="97.1,83.6 171.8,83.6 171.9,83.6 172.7,83.6 174.6,83.6 177.5,83.6 181.4,83.6 185.8,83.6 190.4,83.6 
		194.7,83.6 198.8,83.6 202.7,83.6 206.3,83.6 209.9,83.6 213.6,83.6 215.4,83.6 218.7,83.6 222.1,83.6 225.7,83.6 229.5,83.6 
		233.5,83.6 237.7,83.6 242,83.6 246.3,83.6 250.6,83.6 254.9,83.6 259.1,83.6 263.1,83.6 267,83.6 270.6,83.6 274,83.6 277.3,83.6 
		277.6,83.6 281.4,83.6 285,83.6 288.6,83.6 292.4,83.6 296.3,83.6 300.6,83.6 305.1,83.6 309.6,83.6 313.8,83.6 317.2,83.6 
		319.6,83.6 320.9,83.6 321.2,83.6 321.2,83.6 395.9,83.6 396.1,83.6 396.8,83.6 398.7,83.6 401.6,83.6 405.5,83.6 409.9,83.6 
		414.5,83.6 418.8,83.6 423,83.6 426.8,83.6 430.5,83.6 434.1,83.6 437.7,83.6 439.5,83.6 442.8,83.6 446.2,83.6 449.8,83.6 
		453.6,83.6 457.6,83.6 461.8,83.6 466.1,83.6 470.4,83.6 474.8,83.6 479,83.6 483.2,83.6 487.2,83.6 491.1,83.6 494.7,83.6 
		498.1,83.6 501.4,83.6 501.8,83.6 505.5,83.6 509.1,83.6 512.7,83.6 516.5,83.6 520.5,83.6 524.7,83.6 529.2,83.6 533.7,83.6 
		537.9,83.6 541.3,83.6 543.7,83.6 545,83.6 545.3,83.6 545.3,83.6 620,83.6 620,61.3 545.3,61.3 545.2,61.3 544.5,61.3 542.6,61.3 
		539.6,61.3 535.7,61.3 531.3,61.3 526.8,61.3 522.4,61.3 518.3,61.3 514.5,61.3 510.8,61.3 507.2,61.3 503.6,61.3 501.8,61.3 
		498.5,61.3 495.1,61.3 491.5,61.3 487.6,61.3 483.6,61.3 479.5,61.3 475.2,61.3 470.9,61.3 466.5,61.3 462.2,61.3 458.1,61.3 
		454,61.3 450.2,61.3 446.6,61.3 443.1,61.3 439.9,61.3 439.5,61.3 435.8,61.3 432.2,61.3 428.5,61.3 424.8,61.3 420.8,61.3 
		416.6,61.3 412.1,61.3 407.6,61.3 403.4,61.3 400,61.3 397.6,61.3 396.3,61.3 396,61.3 395.9,61.3 321.2,61.3 321.1,61.3 
		320.3,61.3 318.5,61.3 315.5,61.3 311.6,61.3 307.2,61.3 302.7,61.3 298.3,61.3 294.2,61.3 290.4,61.3 286.7,61.3 283.1,61.3 
		279.4,61.3 277.6,61.3 274.4,61.3 271,61.3 267.3,61.3 263.5,61.3 259.5,61.3 255.4,61.3 251.1,61.3 246.8,61.3 242.4,61.3 
		238.1,61.3 234,61.3 229.9,61.3 226.1,61.3 222.5,61.3 219,61.3 215.7,61.3 215.4,61.3 211.7,61.3 208.1,61.3 204.4,61.3 
		200.7,61.3 196.7,61.3 192.5,61.3 188,61.3 183.5,61.3 179.3,61.3 175.8,61.3 173.4,61.3 172.2,61.3 171.8,61.3 171.8,61.3 
		97.1,61.3 	"/>
	<polygon class="st1" points="97.1,119.5 171.8,119.5 171.9,119.5 172.7,119.5 174.6,119.5 177.5,119.5 181.4,119.5 185.8,119.5 
		190.4,119.5 194.7,119.5 198.8,119.5 202.7,119.5 206.3,119.5 209.9,119.5 213.6,119.5 215.4,119.5 218.7,119.5 222.1,119.5 
		225.7,119.5 229.5,119.5 233.5,119.5 237.7,119.5 242,119.5 246.3,119.5 250.6,119.5 254.9,119.5 259.1,119.5 263.1,119.5 
		267,119.5 270.6,119.5 274,119.5 277.3,119.5 277.6,119.5 281.4,119.5 285,119.5 288.6,119.5 292.4,119.5 296.3,119.5 300.6,119.5 
		305.1,119.5 309.6,119.5 313.8,119.5 317.2,119.5 319.6,119.5 320.9,119.5 321.2,119.5 321.2,119.5 395.9,119.5 396.1,119.5 
		396.8,119.5 398.7,119.5 401.6,119.5 405.5,119.5 409.9,119.5 414.5,119.5 418.8,119.5 423,119.5 426.8,119.5 430.5,119.5 
		434.1,119.5 437.7,119.5 439.5,119.5 442.8,119.5 446.2,119.5 449.8,119.5 453.6,119.5 457.6,119.5 461.8,119.5 466.1,119.5 
		470.4,119.5 474.8,119.5 479,119.5 483.2,119.5 487.2,119.5 491.1,119.5 494.7,119.5 498.1,119.5 501.4,119.5 501.8,119.5 
		505.5,119.5 509.1,119.5 512.7,119.5 516.5,119.5 520.5,119.5 524.7,119.5 529.2,119.5 533.7,119.5 537.9,119.5 541.3,119.5 
		543.7,119.5 545,119.5 545.3,119.5 545.3,119.5 620,119.5 620,83.6 545.3,83.6 545.2,83.6 544.5,83.6 542.6,83.6 539.6,83.6 
		535.7,83.6 531.3,83.6 526.8,83.6 522.4,83.6 518.3,83.6 514.5,83.6 510.8,83.6 507.2,83.6 503.6,83.6 501.8,83.6 498.5,83.6 
		495.1,83.6 491.5,83.6 487.6,83.6 483.6,83.6 479.5,83.6 475.2,83.6 470.9,83.6 466.5,83.6 462.2,83.6 458.1,83.6 454,83.6 
		450.2,83.6 446.6,83.6 443.1,83.6 439.9,83.6 439.5,83.6 435.8,83.6 432.2,83.6 428.5,83.6 424.8,83.6 420.8,83.6 416.6,83.6 
		412.1,83.6 407.6,83.6 403.4,83.6 400,83.6 397.6,83.6 396.3,83.6 396,83.6 395.9,83.6 321.2,83.6 321.1,83.6 320.3,83.6 
		318.5,83.6 315.5,83.6 311.6,83.6 307.2,83.6 302.7,83.6 298.3,83.6 294.2,83.6 290.4,83.6 286.7,83.6 283.1,83.6 279.4,83.6 
		277.6,83.6 274.4,83.6 271,83.6 267.3,83.6 263.5,83.6 259.5,83.6 255.4,83.6 251.1,83.6 246.8,83.6 242.4,83.6 238.1,83.6 
		234,83.6 229.9,83.6 226.1,83.6 222.5,83.6 219,83.6 215.7,83.6 215.4,83.6 211.7,83.6 208.1,83.6 204.4,83.6 200.7,83.6 
		196.7,83.6 192.5,83.6 188,83.6 183.5,83.6 179.3,83.6 175.8,83.6 173.4,83.6 172.2,83.6 171.8,83.6 171.8,83.6 97.1,83.6 	"/>
	<polygon class="st1" points="97.1,194.8 171.8,194.8 171.9,194.8 172.7,194.8 174.6,194.8 177.5,194.8 181.4,194.8 185.8,194.8 
		190.4,194.8 194.7,194.8 198.8,194.8 202.7,194.8 206.3,194.8 209.9,194.8 213.6,194.8 215.4,194.8 218.7,194.8 222.1,194.8 
		225.7,194.8 229.5,194.8 233.5,194.8 237.7,194.8 242,194.8 246.3,194.8 250.6,194.8 254.9,194.8 259.1,194.8 263.1,194.8 
		267,194.8 270.6,194.8 274,194.8 277.3,194.8 277.6,194.8 281.4,194.8 285,194.8 288.6,194.8 292.4,194.8 296.3,194.8 300.6,194.8 
		305.1,194.8 309.6,194.8 313.8,194.8 317.2,194.8 319.6,194.8 320.9,194.8 321.2,194.8 321.2,194.8 395.9,194.8 396.1,194.8 
		396.8,194.8 398.7,194.8 401.6,194.8 405.5,194.8 409.9,194.8 414.5,194.8 418.8,194.8 423,194.8 426.8,194.8 430.5,194.8 
		434.1,194.8 437.7,194.8 439.5,194.8 442.8,194.8 446.2,194.8 449.8,194.8 453.6,194.8 457.6,194.8 461.8,194.8 466.1,194.8 
		470.4,194.8 474.8,194.8 479,194.8 483.2,194.8 487.2,194.8 491.1,194.8 494.7,194.8 498.1,194.8 501.4,194.8 501.8,194.8 
		505.5,194.8 509.1,194.8 512.7,194.8 516.5,194.8 520.5,194.8 524.7,194.8 529.2,194.8 533.7,194.8 537.9,194.8 541.3,194.8 
		543.7,194.8 545,194.8 545.3,194.8 545.3,194.8 620,194.8 620,119.5 545.3,119.5 545.2,119.5 544.5,119.5 542.6,119.5 539.6,119.5 
		535.7,119.5 531.3,119.5 526.8,119.5 522.4,119.5 518.3,119.5 514.5,119.5 510.8,119.5 507.2,119.5 503.6,119.5 501.8,119.5 
		498.5,119.5 495.1,119.5 491.5,119.5 487.6,119.5 483.6,119.5 479.5,119.5 475.2,119.5 470.9,119.5 466.5,119.5 462.2,119.5 
		458.1,119.5 454,119.5 450.2,119.5 446.6,119.5 443.1,119.5 439.9,119.5 439.5,119.5 435.8,119.5 432.2,119.5 428.5,119.5 
		424.8,119.5 420.8,119.5 416.6,119.5 412.1,119.5 407.6,119.5 403.4,119.5 400,119.5 397.6,119.5 396.3,119.5 396,119.5 
		395.9,119.5 321.2,119.5 321.1,119.5 320.3,119.5 318.5,119.5 315.5,119.5 311.6,119.5 307.2,119.5 302.7,119.5 298.3,119.5 
		294.2,119.5 290.4,119.5 286.7,119.5 283.1,119.5 279.4,119.5 277.6,119.5 274.4,119.5 271,119.5 267.3,119.5 263.5,119.5 
		259.5,119.5 255.4,119.5 251.1,119.5 246.8,119.5 242.4,119.5 238.1,119.5 234,119.5 229.9,119.5 226.1,119.5 222.5,119.5 
		219,119.5 215.7,119.5 215.4,119.5 211.7,119.5 208.1,119.5 204.4,119.5 200.7,119.5 196.7,119.5 192.5,119.5 188,119.5 
		183.5,119.5 179.3,119.5 175.8,119.5 173.4,119.5 172.2,119.5 171.8,119.5 171.8,119.5 97.1,119.5 	"/>
	<polyline class="st2" points="395.9,194.8 395.9,194.8 321.2,194.8 321.1,194.8 320.3,194.8 318.5,194.8 315.5,194.8 311.6,194.8 
		307.2,194.8 302.7,194.8 298.3,194.8 294.2,194.8 290.4,194.8 286.7,194.8 283.1,194.8 279.4,194.8 277.6,194.8 274.4,194.8 
		271,194.8 267.3,194.8 263.5,194.8 259.5,194.8 255.4,194.8 251.1,194.8 246.8,194.8 242.4,194.8 238.1,194.8 234,194.8 
		229.9,194.8 226.1,194.8 222.5,194.8 219,194.8 215.7,194.8 215.4,194.8 211.7,194.8 208.1,194.8 204.4,194.8 200.7,194.8 
		196.7,194.8 192.5,194.8 188,194.8 183.5,194.8 179.3,194.8 175.8,194.8 173.4,194.8 172.2,194.8 171.8,194.8 171.8,194.8 
		97.1,194.8 97.1,273.1 171.8,273.1 171.9,273.1 172.7,273.1 174.6,273.1 177.5,273.1 181.4,273.1 185.8,273.1 190.4,273.1 
		194.7,273.1 198.8,273.1 202.7,273.1 206.3,273.1 209.9,273.1 213.6,273.1 215.4,273.1 218.7,273.1 222.1,273.1 225.7,273.1 
		229.5,273.1 233.5,273.1 237.7,273.1 242,273.1 246.3,273.1 250.6,273.1 254.9,273.1 259.1,273.1 263.1,273.1 267,273.1 
		270.6,273.1 274,273.1 277.3,273.1 277.6,273.1 281.4,273.1 285,273.1 288.6,273.1 292.4,273.1 296.3,273.1 300.6,273.1 
		305.1,273.1 309.6,273.1 313.8,273.1 317.2,273.1 319.6,273.1 320.9,273.1 321.2,273.1 321.2,273.1 395.9,273.1 396,273.1 	"/>
	<polyline class="st3" points="396,610.3 395.9,610.3 321.2,610.3 321.1,610.3 320.3,610.3 318.5,610.3 315.5,610.3 311.6,610.3 
		307.2,610.3 302.7,610.3 298.3,610.3 294.2,610.3 290.4,610.3 286.7,610.3 283.1,610.3 279.4,610.3 277.6,610.3 274.4,610.3 
		271,610.3 267.3,610.3 263.5,610.3 259.5,610.3 255.4,610.3 251.1,610.3 246.8,610.3 242.4,610.3 238.1,610.3 234,610.3 
		229.9,610.3 226.1,610.3 222.5,610.3 219,610.3 215.7,610.3 215.4,610.3 211.7,610.3 208.1,610.3 204.4,610.3 200.7,610.3 
		196.7,610.3 192.5,610.3 188,610.3 183.5,610.3 179.3,610.3 175.8,610.3 173.4,610.3 172.2,610.3 171.8,610.3 171.8,610.3 
		97.1,610.3 97.1,672.1 171.8,672.1 171.9,672.1 172.7,672.1 174.6,672.1 177.5,672.1 181.4,672.1 185.8,672.1 190.4,672.1 
		194.7,672.1 198.8,672.1 202.7,672.1 206.3,672.1 209.9,672.1 213.6,672.1 215.4,672.1 218.7,672.1 222.1,672.1 225.7,672.1 
		229.5,672.1 233.5,672.1 237.7,672.1 242,672.1 246.3,672.1 250.6,672.1 254.9,672.1 259.1,672.1 263.1,672.1 267,672.1 
		270.6,672.1 274,672.1 277.3,672.1 277.6,672.1 281.4,672.1 285,672.1 288.6,672.1 292.4,672.1 296.3,672.1 300.6,672.1 
		305.1,672.1 309.6,672.1 313.8,672.1 317.2,672.1 319.6,672.1 320.9,672.1 321.2,672.1 321.2,672.1 395.9,672.1 396.1,672.1 	"/>
	<polygon class="st4" points="97.1,675 139.8,675 139.9,675 140.3,675 141.4,675 143.1,675 145.3,675 147.8,675 150.4,675 
		152.9,675 155.2,675 157.4,675 159.5,675 161.6,675 163.7,675 164.7,675 166.6,675 168.5,675 170.6,675 172.8,675 175.1,675 
		177.5,675 179.9,675 182.4,675 184.9,675 187.3,675 189.7,675 192,675 194.2,675 196.3,675 198.2,675 200.1,675 200.3,675 
		202.4,675 204.5,675 206.6,675 208.7,675 211,675 213.4,675 216,675 218.5,675 220.9,675 222.9,675 224.3,675 225,675 225.2,675 
		225.2,675 267.9,675 268,675 268.4,675 269.5,675 271.2,675 273.4,675 275.9,675 278.5,675 281,675 283.3,675 285.5,675 287.6,675 
		289.7,675 291.8,675 292.8,675 294.7,675 296.6,675 298.7,675 300.9,675 303.2,675 305.5,675 308,675 310.5,675 312.9,675 
		315.4,675 317.8,675 320.1,675 322.3,675 324.3,675 326.3,675 328.2,675 328.4,675 330.5,675 332.6,675 334.6,675 336.8,675 
		339.1,675 341.5,675 344,675 346.6,675 349,675 351,675 352.4,675 353.1,675 353.3,675 353.3,675 396,675 396,672.1 353.3,672.1 
		353.2,672.1 352.8,672.1 351.7,672.1 350,672.1 347.8,672.1 345.3,672.1 342.7,672.1 340.2,672.1 337.8,672.1 335.7,672.1 
		333.6,672.1 331.5,672.1 329.4,672.1 328.4,672.1 326.5,672.1 324.6,672.1 322.5,672.1 320.3,672.1 318,672.1 315.6,672.1 
		313.2,672.1 310.7,672.1 308.2,672.1 305.8,672.1 303.4,672.1 301.1,672.1 298.9,672.1 296.8,672.1 294.9,672.1 293,672.1 
		292.8,672.1 290.7,672.1 288.6,672.1 286.5,672.1 284.4,672.1 282.1,672.1 279.7,672.1 277.1,672.1 274.6,672.1 272.2,672.1 
		270.2,672.1 268.8,672.1 268.1,672.1 267.9,672.1 267.9,672.1 225.2,672.1 225.1,672.1 224.7,672.1 223.6,672.1 221.9,672.1 
		219.7,672.1 217.2,672.1 214.6,672.1 212.1,672.1 209.8,672.1 207.6,672.1 205.5,672.1 203.4,672.1 201.3,672.1 200.3,672.1 
		198.4,672.1 196.5,672.1 194.4,672.1 192.2,672.1 189.9,672.1 187.6,672.1 185.1,672.1 182.6,672.1 180.2,672.1 177.7,672.1 
		175.3,672.1 173,672.1 170.8,672.1 168.8,672.1 166.8,672.1 164.9,672.1 164.7,672.1 162.6,672.1 160.5,672.1 158.4,672.1 
		156.3,672.1 154,672.1 151.6,672.1 149,672.1 146.5,672.1 144.1,672.1 142.1,672.1 140.7,672.1 140,672.1 139.8,672.1 139.8,672.1 
		97.1,672.1 	"/>
	<polygon class="st5" points="97.1,676.8 139.8,676.8 139.9,676.8 140.3,676.8 141.4,676.8 143.1,676.8 145.3,676.8 147.8,676.8 
		150.4,676.8 152.9,676.8 155.2,676.8 157.4,676.8 159.5,676.8 161.6,676.8 163.7,676.8 164.7,676.8 166.6,676.8 168.5,676.8 
		170.6,676.8 172.8,676.8 175.1,676.8 177.4,676.8 179.9,676.8 182.4,676.8 184.8,676.8 187.3,676.8 189.7,676.8 192,676.8 
		194.2,676.8 196.2,676.8 198.2,676.8 200.1,676.8 200.3,676.8 202.4,676.8 204.5,676.8 206.5,676.8 208.7,676.8 211,676.8 
		213.4,676.8 215.9,676.8 218.5,676.8 220.9,676.8 222.9,676.8 224.3,676.8 225,676.8 225.2,676.8 225.2,676.8 267.9,676.8 
		267.9,676.8 268.4,676.8 269.4,676.8 271.1,676.8 273.4,676.8 275.9,676.8 278.5,676.8 281,676.8 283.3,676.8 285.5,676.8 
		287.6,676.8 289.7,676.8 291.8,676.8 292.8,676.8 294.6,676.8 296.6,676.8 298.7,676.8 300.8,676.8 303.1,676.8 305.5,676.8 
		308,676.8 310.4,676.8 312.9,676.8 315.4,676.8 317.7,676.8 320,676.8 322.2,676.8 324.3,676.8 326.3,676.8 328.2,676.8 
		328.4,676.8 330.5,676.8 332.5,676.8 334.6,676.8 336.8,676.8 339,676.8 341.5,676.8 344,676.8 346.6,676.8 349,676.8 351,676.8 
		352.3,676.8 353,676.8 353.2,676.8 353.2,676.8 395.9,676.8 395.9,675 353.2,675 353.2,675 352.7,675 351.7,675 350,675 347.8,675 
		345.2,675 342.7,675 340.2,675 337.8,675 335.6,675 333.5,675 331.5,675 329.4,675 328.4,675 326.5,675 324.5,675 322.5,675 
		320.3,675 318,675 315.6,675 313.2,675 310.7,675 308.2,675 305.8,675 303.4,675 301.1,675 298.9,675 296.8,675 294.8,675 293,675 
		292.8,675 290.6,675 288.6,675 286.5,675 284.4,675 282.1,675 279.7,675 277.1,675 274.5,675 272.1,675 270.2,675 268.8,675 
		268.1,675 267.9,675 267.9,675 225.2,675 225.1,675 224.7,675 223.6,675 221.9,675 219.7,675 217.2,675 214.6,675 212.1,675 
		209.7,675 207.5,675 205.5,675 203.4,675 201.3,675 200.3,675 198.4,675 196.5,675 194.4,675 192.2,675 189.9,675 187.5,675 
		185.1,675 182.6,675 180.1,675 177.7,675 175.3,675 173,675 170.8,675 168.7,675 166.8,675 164.9,675 164.7,675 162.6,675 
		160.5,675 158.4,675 156.3,675 154,675 151.6,675 149,675 146.5,675 144.1,675 142.1,675 140.7,675 140,675 139.8,675 139.8,675 
		97.1,675 	"/>
	<polygon class="st6" points="97.1,677.9 139.8,677.9 139.9,677.9 140.3,677.9 141.4,677.9 143.1,677.9 145.3,677.9 147.8,677.9 
		150.4,677.9 152.9,677.9 155.2,677.9 157.4,677.9 159.5,677.9 161.6,677.9 163.7,677.9 164.7,677.9 166.6,677.9 168.5,677.9 
		170.6,677.9 172.8,677.9 175.1,677.9 177.4,677.9 179.9,677.9 182.4,677.9 184.8,677.9 187.3,677.9 189.7,677.9 192,677.9 
		194.2,677.9 196.2,677.9 198.2,677.9 200.1,677.9 200.3,677.9 202.4,677.9 204.5,677.9 206.5,677.9 208.7,677.9 211,677.9 
		213.4,677.9 215.9,677.9 218.5,677.9 220.9,677.9 222.9,677.9 224.3,677.9 225,677.9 225.2,677.9 225.2,677.9 267.9,677.9 
		267.9,677.9 268.4,677.9 269.4,677.9 271.1,677.9 273.4,677.9 275.9,677.9 278.5,677.9 281,677.9 283.3,677.9 285.5,677.9 
		287.6,677.9 289.7,677.9 291.8,677.9 292.8,677.9 294.6,677.9 296.6,677.9 298.7,677.9 300.8,677.9 303.1,677.9 305.5,677.9 
		308,677.9 310.4,677.9 312.9,677.9 315.4,677.9 317.7,677.9 320,677.9 322.2,677.9 324.3,677.9 326.3,677.9 328.2,677.9 
		328.4,677.9 330.5,677.9 332.5,677.9 334.6,677.9 336.8,677.9 339,677.9 341.5,677.9 344,677.9 346.6,677.9 349,677.9 351,677.9 
		352.3,677.9 353,677.9 353.2,677.9 353.2,677.9 395.9,677.9 395.9,676.8 353.2,676.8 353.2,676.8 352.7,676.8 351.7,676.8 
		350,676.8 347.8,676.8 345.2,676.8 342.7,676.8 340.2,676.8 337.8,676.8 335.6,676.8 333.5,676.8 331.5,676.8 329.4,676.8 
		328.4,676.8 326.5,676.8 324.5,676.8 322.5,676.8 320.3,676.8 318,676.8 315.6,676.8 313.2,676.8 310.7,676.8 308.2,676.8 
		305.8,676.8 303.4,676.8 301.1,676.8 298.9,676.8 296.8,676.8 294.8,676.8 293,676.8 292.8,676.8 290.6,676.8 288.6,676.8 
		286.5,676.8 284.4,676.8 282.1,676.8 279.7,676.8 277.1,676.8 274.5,676.8 272.1,676.8 270.2,676.8 268.8,676.8 268.1,676.8 
		267.9,676.8 267.9,676.8 225.2,676.8 225.1,676.8 224.7,676.8 223.6,676.8 221.9,676.8 219.7,676.8 217.2,676.8 214.6,676.8 
		212.1,676.8 209.7,676.8 207.5,676.8 205.5,676.8 203.4,676.8 201.3,676.8 200.3,676.8 198.4,676.8 196.5,676.8 194.4,676.8 
		192.2,676.8 189.9,676.8 187.5,676.8 185.1,676.8 182.6,676.8 180.1,676.8 177.7,676.8 175.3,676.8 173,676.8 170.8,676.8 
		168.7,676.8 166.8,676.8 164.9,676.8 164.7,676.8 162.6,676.8 160.5,676.8 158.4,676.8 156.3,676.8 154,676.8 151.6,676.8 
		149,676.8 146.5,676.8 144.1,676.8 142.1,676.8 140.7,676.8 140,676.8 139.8,676.8 139.8,676.8 97.1,676.8 	"/>
	<polygon class="st7" points="97.1,672.1 171.8,672.1 171.8,677.9 97.1,677.9 	"/>
	<polygon class="st7" points="97.1,26 171.8,26 171.8,672.1 97.1,672.1 	"/>
	<polygon class="st8" points="321.2,676.8 395.9,676.8 395.9,677.9 321.2,677.9 	"/>
	<polygon class="st9" points="321.2,675 395.9,675 395.9,676.8 321.2,676.8 	"/>
	<polygon class="st10" points="321.2,672.1 395.9,672.1 395.9,675 321.2,675 	"/>
	<polygon class="st11" points="321.2,610.3 395.9,610.3 395.9,672.1 321.2,672.1 	"/>
	<polygon class="st12" points="321.2,273.1 395.9,273.1 395.9,610.3 321.2,610.3 	"/>
	<polygon class="st13" points="321.2,194.8 395.9,194.8 395.9,273.1 321.2,273.1 	"/>
	<polygon class="st14" points="321.2,26 395.9,26 395.9,194.8 321.2,194.8 	"/>
	<polygon class="st14" points="545.3,119.5 620,119.5 620,194.8 545.3,194.8 	"/>
	<polygon class="st14" points="545.3,83.6 620,83.6 620,119.5 545.3,119.5 	"/>
	<polygon class="st14" points="545.3,61.3 620,61.3 620,83.6 545.3,83.6 	"/>
	<polygon class="st14" points="545.3,26 620,26 620,61.3 545.3,61.3 	"/>
	<text transform="matrix(1 0 0 1 398.7758 689.7269)" class="st15 st16">Mollusca (2)</text>
	<text transform="matrix(1 0 0 1 398.7758 678.8627)" class="st15 st16">Cnidaria (3)</text>
	<text transform="matrix(1 0 0 1 398.7927 667.9983)" class="st15 st16">Arthropoda (5)</text>
	<text transform="matrix(0.8697 0 0 1 321.2295 637.4862)" class="st17"><tspan x="0" y="0" class="st15 st16">Other vertebrates</tspan><tspan x="30.1" y="13.2" class="st15 st16">(105)</tspan></text>
	<text transform="matrix(1 0 0 1 334.6639 445.767)" class="st17"><tspan x="0" y="0" class="st15 st16">Mammals</tspan><tspan x="11" y="13.2" class="st15 st16">(573)</tspan></text>
	<text transform="matrix(1 0 0 1 333.7319 237.9357)" class="st15 st16">Fish (133)</text>
	<text transform="matrix(1 0 0 1 331.5837 114.3656)" class="st15 st16">Birds (287)</text>
	<g>
		<g>
			<polygon class="st12" points="545.3,516.1 620,516.1 620,610.3 545.3,610.3 			"/>
			<text transform="matrix(0.902 0 0 1 547.2744 567.1554)" class="st15 st16">Ungulates (160)</text>
		</g>
		<g>
			<polygon class="st12" points="545.3,464.9 620,464.9 620,516.1 545.3,516.1 			"/>
			<text transform="matrix(0.9122 0 0 1 546.8818 486.8517)" class="st17"><tspan x="0" y="0" class="st15 st16">Other mammals</tspan><tspan x="29.4" y="13.2" class="st15 st16">(87)</tspan></text>
		</g>
		<g>
			<polygon class="st12" points="545.3,416.7 620,416.7 620,464.9 545.3,464.9 			"/>
			<text transform="matrix(0.9488 0 0 1 546.8906 444.7657)" class="st15 st16">Cetaceans (82)</text>
		</g>
		<g>
			<polygon class="st12" points="545.3,273.1 620,273.1 620,416.7 545.3,416.7 			"/>
			<text transform="matrix(0.8711 0 0 1 546.8906 348.8556)" class="st15 st16">Carnivores (244)</text>
		</g>
	</g>
	<text transform="matrix(1 0 0 1 546.4939 161.1457)" class="st15 st16">Seabirds (128)</text>
	<text transform="matrix(1 0 0 1 552.022 105.5456)" class="st15 st16">Raptors (61)</text>
	<text transform="matrix(0.9264 0 0 1 546.8916 76.4159)" class="st15 st16">Other birds (38)</text>
	<text transform="matrix(1 0 0 1 559.6956 47.5856)" class="st15 st16">Fowl (60)</text>
	<text transform="matrix(1 0 0 1 104.4014 345.3362)" class="st17"><tspan x="0" y="0" class="st15 st16">Vertebrates </tspan><tspan x="14.1" y="13.2" class="st15 st16">(1098)</tspan></text>
	<text transform="matrix(1 0 0 1 90.903 689.7264)" class="st15 st16">Invertebrates (10)</text>
</g>
</svg>
